M48
METRIC,TZ
T1C0.282
T2C0.768
T3C1.158
%
G90
G05
T1
X3072Y12921
X-21203Y16922
X-19530Y-13490
X-33226Y23487
X-3209Y-14896
X-25466Y37401
X12243Y1933
X-9100Y46419
X-16861Y1972
X-7494Y32087
X-2161Y14705
X-11858Y23469
X20307Y-11008
T2
X-35156Y23232
X20846Y-2626
X-24125Y11666
X25715Y2402
X20857Y11655
X25715Y4410
X-28517Y4388
X-28507Y714
X-28507Y8098
X-24097Y-2610
X-33905Y20044
X8270Y31266
X10397Y27174
X-32334Y18803
X-37744Y20162
X-36456Y21709
X12535Y23098
X25710Y6411
T3
X-9081Y38335
X-22261Y29680
X-9105Y44155
X-24463Y35068
T0
M30
